<svg width="400" height="400" viewBox="0 0 400 400" xmlns="http://www.w3.org/2000/svg">
  <rect width="400" height="400" fill="none"/>
  
  <!-- 더 적은 수의 작은 별들 -->
  <g fill="#FFFFFF">
    <circle cx="20" cy="30" r="0.5" opacity="0.4"/>
    <circle cx="70" cy="50" r="0.5" opacity="0.3"/>
    <circle cx="120" cy="20" r="0.5" opacity="0.5"/>
    <circle cx="180" cy="70" r="0.5" opacity="0.4"/>
    <circle cx="230" cy="40" r="0.5" opacity="0.3"/>
    <circle cx="260" cy="90" r="0.5" opacity="0.5"/>
    <circle cx="310" cy="35" r="0.5" opacity="0.4"/>
    <circle cx="350" cy="80" r="0.5" opacity="0.3"/>
    
    <circle cx="30" cy="120" r="0.5" opacity="0.5"/>
    <circle cx="80" cy="170" r="0.5" opacity="0.4"/>
    <circle cx="150" cy="130" r="0.5" opacity="0.3"/>
    <circle cx="210" cy="150" r="0.5" opacity="0.5"/>
    <circle cx="270" cy="110" r="0.5" opacity="0.4"/>
    <circle cx="330" cy="160" r="0.5" opacity="0.3"/>
    
    <circle cx="40" cy="220" r="0.5" opacity="0.5"/>
    <circle cx="100" cy="250" r="0.5" opacity="0.4"/>
    <circle cx="160" cy="210" r="0.5" opacity="0.3"/>
    <circle cx="220" cy="260" r="0.5" opacity="0.5"/>
    <circle cx="280" cy="230" r="0.5" opacity="0.4"/>
    <circle cx="340" cy="280" r="0.5" opacity="0.3"/>
    
    <circle cx="15" cy="320" r="0.5" opacity="0.4"/>
    <circle cx="65" cy="350" r="0.5" opacity="0.3"/>
    <circle cx="140" cy="310" r="0.5" opacity="0.5"/>
    <circle cx="195" cy="360" r="0.5" opacity="0.4"/>
    <circle cx="250" cy="330" r="0.5" opacity="0.3"/>
    <circle cx="305" cy="380" r="0.5" opacity="0.5"/>
    <circle cx="370" cy="340" r="0.5" opacity="0.4"/>
  </g>
  
  <!-- 더 적은 수의 중간 크기 별들 -->
  <g fill="#FFFFFF">
    <circle cx="50" cy="25" r="0.8" opacity="0.6"/>
    <circle cx="150" cy="45" r="0.8" opacity="0.7"/>
    <circle cx="250" cy="15" r="0.8" opacity="0.6"/>
    <circle cx="350" cy="55" r="0.8" opacity="0.7"/>
    
    <circle cx="35" cy="145" r="0.8" opacity="0.7"/>
    <circle cx="135" cy="165" r="0.8" opacity="0.6"/>
    <circle cx="235" cy="125" r="0.8" opacity="0.7"/>
    <circle cx="335" cy="185" r="0.8" opacity="0.6"/>
    
    <circle cx="65" cy="245" r="0.8" opacity="0.6"/>
    <circle cx="165" cy="285" r="0.8" opacity="0.7"/>
    <circle cx="265" cy="255" r="0.8" opacity="0.6"/>
    <circle cx="365" cy="295" r="0.8" opacity="0.7"/>
    
    <circle cx="45" cy="345" r="0.8" opacity="0.7"/>
    <circle cx="175" cy="325" r="0.8" opacity="0.6"/>
    <circle cx="275" cy="375" r="0.8" opacity="0.7"/>
    <circle cx="375" cy="315" r="0.8" opacity="0.6"/>
  </g>
  
  <!-- 더 적은 수의 큰 별들 -->
  <g fill="#FFFFFF">
    <circle cx="85" cy="75" r="1" opacity="0.8"/>
    <circle cx="285" cy="65" r="1" opacity="0.8"/>
    <circle cx="55" cy="195" r="1" opacity="0.8"/>
    <circle cx="255" cy="185" r="1" opacity="0.8"/>
    <circle cx="125" cy="275" r="1" opacity="0.8"/>
    <circle cx="325" cy="265" r="1" opacity="0.8"/>
    <circle cx="95" cy="375" r="1" opacity="0.8"/>
    <circle cx="295" cy="365" r="1" opacity="0.8"/>
  </g>
</svg> 